General
Complete name                            : Dragon_Tales_Sing_and_Dance_in_Dragon_Land_2005_NTSC_DVD5.iso
Format                                   : ISO 9660 / UDF
File size                                : 2.56 GiB
Duration                                 : 30 min 22 s
Overall bit rate mode                    : Variable
Overall bit rate                         : 11.2 Mb/s
File creation date                       : UTC 2005-08-23 14:32:08
Encoded application                      : SONYS_DVD_ARCHITECT_OR_SCENARIST
Volume ID                                : DVD_VIDEO

Video
ID                                       : 224 (0xE0)
Format                                   : MPEG Video
Format version                           : Version 2
Format profile                           : Main@Main
Format settings                          : BVOP
Format settings, BVOP                    : Yes
Format settings, Matrix                  : Default
Format settings, GOP                     : M=3, N=15
Duration                                 : 30 min 22 s
Bit rate mode                            : Variable
Bit rate                                 : 5 450 kb/s
Maximum bit rate                         : 8 200 kb/s
Width                                    : 720 pixels
Height                                   : 480 pixels
Display aspect ratio                     : 4:3
Frame rate                               : 29.970 (30000/1001) FPS
Standard                                 : NTSC
Color space                              : YUV
Chroma subsampling                       : 4:2:0
Bit depth                                : 8 bits
Scan type                                : Interlaced
Scan order                               : Bottom Field First
Compression mode                         : Lossy
Bits/(Pixel*Frame)                       : 0.526
Time code of first frame                 : 00:00:00:00
Time code source                         : Group of pictures header
Stream size                              : 1.16 GiB (45%)

Audio #1
ID                                       : 128 (0x80)
Format                                   : AC-3
Format/Info                              : Audio Coding 3
Commercial name                          : Dolby Digital
Muxing mode                              : DVD-Video
Duration                                 : 30 min 22 s
Bit rate mode                            : Constant
Bit rate                                 : 192 kb/s
Channel(s)                               : 2 channels
Channel layout                           : L R
Sampling rate                            : 48.0 kHz
Frame rate                               : 31.250 FPS (1536 SPF)
Bit depth                                : 16 bits
Compression mode                         : Lossy
Delay relative to video                  : -26 ms
Stream size                              : 41.7 MiB (1.6%)
Language                                 : English
Service kind                             : Complete Main

Menu
00:00:00.000                             : en:Main Menu / Play Movie / Scene Selection
00:00:15.500                             : en:Trailers (Previews)
00:00:15.525                             : en:Stuart Little 3: Call of the Wild Trailer
00:01:45.100                             : en:Columbia TriStar Family Fun Promo